<svg width="500" height="282" viewBox="0 0 500 282" fill="none" xmlns="http://www.w3.org/2000/svg">
<rect width="500" height="281.25" fill="#111111"/>
<path d="M228.057 115.679V165.321H219V115.679H228.057Z" fill="white"/>
<path d="M271.357 131.531C270.95 130.222 270.389 129.051 269.673 128.017C268.973 126.966 268.127 126.069 267.134 125.326C266.158 124.583 265.035 124.025 263.765 123.654C262.496 123.266 261.112 123.072 259.615 123.072C256.93 123.072 254.538 123.742 252.438 125.084C250.339 126.425 248.687 128.396 247.483 130.998C246.294 133.584 245.7 136.735 245.7 140.452C245.7 144.201 246.294 147.376 247.483 149.978C248.671 152.579 250.322 154.559 252.438 155.916C254.554 157.258 257.011 157.928 259.811 157.928C262.349 157.928 264.546 157.443 266.402 156.474C268.273 155.504 269.714 154.131 270.723 152.353C271.732 150.559 272.236 148.459 272.236 146.051L274.287 146.366H260.714V139.337H281V145.299C281 149.549 280.089 153.226 278.266 156.328C276.443 159.431 273.937 161.823 270.747 163.503C267.557 165.168 263.895 166 259.762 166C255.156 166 251.112 164.974 247.629 162.922C244.163 160.853 241.453 157.92 239.5 154.123C237.563 150.309 236.595 145.784 236.595 140.548C236.595 136.541 237.164 132.962 238.304 129.81C239.459 126.659 241.07 123.985 243.137 121.787C245.204 119.573 247.629 117.893 250.412 116.745C253.195 115.582 256.222 115 259.493 115C262.26 115 264.839 115.404 267.232 116.212C269.624 117.004 271.748 118.135 273.603 119.606C275.475 121.076 277.013 122.821 278.217 124.841C279.421 126.861 280.211 129.091 280.585 131.531H271.357Z" fill="white"/>
<circle cx="224.5" cy="99.5" r="5.5" fill="white"/>
<circle cx="259.5" cy="99.5" r="5.5" fill="white"/>
</svg>
