<svg width="500" height="282" viewBox="0 0 500 282" fill="none" xmlns="http://www.w3.org/2000/svg">
<rect width="500" height="281.481" fill="#CCCCCC"/>
<path d="M280.972 160.516C277.783 154.131 274.113 145.917 272.547 142.253L271.781 140.612C271.152 139.321 270.581 138.029 269.969 136.737L267.843 132.193C266.774 129.906 265.768 127.574 264.504 125.373C263.996 124.487 263.401 123.658 262.835 122.818C261.108 120.461 259.03 118.383 256.673 116.656C255.504 115.791 254.276 115.008 252.998 114.313L251.02 113.398C250.683 113.249 250.357 113.084 250.02 112.964L248.985 112.609C243.377 110.68 237.319 110.481 231.597 112.038C230.161 112.459 228.756 112.977 227.39 113.587C226.715 113.907 226.007 114.193 225.361 114.564L223.44 115.707C222.172 116.513 220.979 117.429 219.873 118.445C219.302 118.931 218.81 119.48 218.278 120.006C217.74 120.527 217.234 121.08 216.764 121.664C212.833 126.34 210.491 132.145 210.076 138.24C209.853 141.283 210.122 144.342 210.87 147.3C211.236 148.774 211.706 150.22 212.276 151.627C212.574 152.325 212.922 153.005 213.265 153.679C213.574 154.311 213.923 154.922 214.311 155.509C212.379 149.545 212.81 143.066 215.518 137.411C217.061 134.193 219.268 131.337 221.994 129.032C224.767 126.676 228.001 124.924 231.488 123.887C235.433 122.69 239.609 122.471 243.658 123.247C246.833 123.929 249.749 125.499 252.066 127.774C254.867 130.506 256.313 134.21 257.971 137.663C259.362 140.544 260.749 143.427 262.132 146.311C262.951 148.019 263.773 149.733 264.596 151.456C264.704 151.69 265.739 153.331 265.608 153.565C266.179 154.765 267.014 156.515 267.923 158.424C270.918 164.711 276.291 169.667 283.642 169.987C285.357 170.062 288.415 169.873 289.992 167.621C286.911 167.364 282.939 164.443 280.972 160.516Z" fill="#18B7BE"/>
<path d="M274.582 134.262C278.069 126.732 281.609 119.23 285.202 111.757H271.93C270.152 115.679 268.346 119.588 266.539 123.504L273.107 137.434L274.582 134.262Z" fill="#072A40"/>
<path d="M257.531 142.802C255.279 150.61 248.111 157.464 240.457 157.361C231.751 157.241 224.686 149.57 224.686 139.961C224.663 137.422 225.175 134.907 226.189 132.579C227.202 130.25 228.694 128.162 230.568 126.448C225.961 128.703 222.253 132.451 220.049 137.083C217.846 141.715 217.277 146.957 218.434 151.954C219.592 156.951 222.409 161.408 226.424 164.599C230.44 167.79 235.419 169.526 240.548 169.525C244.149 169.462 247.703 168.695 251.009 167.267C254.323 165.849 257.348 163.832 259.931 161.316L260.663 160.602C261.343 159.813 262.063 159.047 262.704 158.224C262.961 157.887 263.212 157.544 263.435 157.184L264.047 156.286L257.531 142.802Z" fill="#072A40"/>
</svg>
